<svg width="1749" height="69" viewBox="0 0 1749 69" fill="none" xmlns="http://www.w3.org/2000/svg">
<path d="M7.12769 14.2578L46.4892 54.2578L85.8507 14.2578L125.317 54.2578L164.678 14.2578L204.145 54.2578L243.506 14.2578L282.972 54.2578L322.334 14.2578L361.8 54.2578L401.161 14.2578L440.523 54.2578L479.989 14.2578L519.351 54.2578L558.817 14.2578L598.178 54.2578L637.645 14.2578L677.006 54.2578L716.472 14.2578L755.834 54.2578L795.3 14.2578L834.661 54.2578L874.128 14.2578L913.489 54.2578L952.955 14.2578L992.317 54.2578L1031.68 14.2578L1071.14 54.2578L1110.51 14.2578L1149.97 54.2578L1189.33 14.2578L1228.8 54.2578L1268.16 14.2578L1307.63 54.2578L1346.99 14.2578L1386.46 54.2578L1425.82 14.2578L1465.18 54.2578L1504.64 14.2578L1544.01 54.2578L1583.47 14.2578L1622.83 54.2578L1662.3 14.2578L1701.66 54.2578L1741.13 14.2578" stroke="#ED7526" stroke-width="20" stroke-miterlimit="10"/>
</svg>
